<?xml version="1.0" encoding="UTF-8" standalone="no"?>
<!-- Generator: Adobe Illustrator 16.0.0, SVG Export Plug-In . SVG Version: 6.00 Build 0)  -->

<svg
   xmlns:dc="http://purl.org/dc/elements/1.1/"
   xmlns:cc="http://creativecommons.org/ns#"
   xmlns:rdf="http://www.w3.org/1999/02/22-rdf-syntax-ns#"
   xmlns:svg="http://www.w3.org/2000/svg"
   xmlns="http://www.w3.org/2000/svg"
   xmlns:sodipodi="http://sodipodi.sourceforge.net/DTD/sodipodi-0.dtd"
   xmlns:inkscape="http://www.inkscape.org/namespaces/inkscape"
   version="1.1"
   id="Capa_1"
   x="0px"
   y="0px"
   width="13.078521"
   height="8.7429123"
   viewBox="0 0 13.078522 8.7429123"
   xml:space="preserve"
   inkscape:version="0.48.4 r9939"
   sodipodi:docname="down.svg"><metadata
     id="metadata43"><rdf:RDF><cc:Work
         rdf:about=""><dc:format>image/svg+xml</dc:format><dc:type
           rdf:resource="http://purl.org/dc/dcmitype/StillImage" /><dc:title></dc:title></cc:Work></rdf:RDF></metadata><defs
     id="defs41" /><sodipodi:namedview
     pagecolor="#ffffff"
     bordercolor="#666666"
     borderopacity="1"
     objecttolerance="10"
     gridtolerance="10"
     guidetolerance="10"
     inkscape:pageopacity="0"
     inkscape:pageshadow="2"
     inkscape:window-width="1366"
     inkscape:window-height="713"
     id="namedview39"
     showgrid="false"
     inkscape:zoom="5.1282051"
     inkscape:cx="-25.733328"
     inkscape:cy="5.15137"
     inkscape:window-x="0"
     inkscape:window-y="0"
     inkscape:window-maximized="1"
     inkscape:current-layer="Capa_1"
     fit-margin-top="0"
     fit-margin-left="0"
     fit-margin-right="0"
     fit-margin-bottom="0" /><g
     id="g3"
     transform="matrix(0,-0.31325277,-0.28419106,0,13.078473,11.579429)"><g
       id="g5"><path
         d="m 14.757,46.02 c -1.412,0 -2.825,-0.521 -3.929,-1.569 -2.282,-2.17 -2.373,-5.78 -0.204,-8.063 L 23.382,22.97 10.637,9.645 C 8.46,7.37 8.54,3.76 10.816,1.582 c 2.277,-2.178 5.886,-2.097 8.063,0.179 l 16.505,17.253 c 2.104,2.2 2.108,5.665 0.013,7.872 L 18.893,44.247 c -1.123,1.177 -2.626,1.773 -4.136,1.773 z"
         id="path7"
         inkscape:connector-curvature="0" /></g></g><g
     id="g9"
     transform="translate(-16.763327,-19.418457)" /><g
     id="g11"
     transform="translate(-16.763327,-19.418457)" /><g
     id="g13"
     transform="translate(-16.763327,-19.418457)" /><g
     id="g15"
     transform="translate(-16.763327,-19.418457)" /><g
     id="g17"
     transform="translate(-16.763327,-19.418457)" /><g
     id="g19"
     transform="translate(-16.763327,-19.418457)" /><g
     id="g21"
     transform="translate(-16.763327,-19.418457)" /><g
     id="g23"
     transform="translate(-16.763327,-19.418457)" /><g
     id="g25"
     transform="translate(-16.763327,-19.418457)" /><g
     id="g27"
     transform="translate(-16.763327,-19.418457)" /><g
     id="g29"
     transform="translate(-16.763327,-19.418457)" /><g
     id="g31"
     transform="translate(-16.763327,-19.418457)" /><g
     id="g33"
     transform="translate(-16.763327,-19.418457)" /><g
     id="g35"
     transform="translate(-16.763327,-19.418457)" /><g
     id="g37"
     transform="translate(-16.763327,-19.418457)" /></svg>